<?xml version="1.0" encoding="UTF-8" standalone="no"?>
<!DOCTYPE svg PUBLIC "-//W3C//DTD SVG 1.0//EN" "http://www.w3.org/TR/2001/PR-SVG-20010719/DTD/svg10.dtd">
<svg width="21cm" height="8cm" viewBox="330 247 414 154" xmlns="http://www.w3.org/2000/svg" xmlns:xlink="http://www.w3.org/1999/xlink">
  <g>
    <rect style="fill: #ffffff" x="331.371" y="304.736" width="80" height="36" rx="10" ry="10"/>
    <rect style="fill: none; fill-opacity:0; stroke-width: 2; stroke: #000000" x="331.371" y="304.736" width="80" height="36" rx="10" ry="10"/>
    <text font-size="12.7998" style="fill: #000000;text-anchor:middle;font-family:sans-serif;font-style:normal;font-weight:normal" x="371.371" y="327.536">
      <tspan x="371.371" y="327.536">Solid</tspan>
    </text>
  </g>
  <g>
    <rect style="fill: #ffffff" x="492.293" y="306.36" width="80" height="36" rx="10" ry="10"/>
    <rect style="fill: none; fill-opacity:0; stroke-width: 2; stroke: #000000" x="492.293" y="306.36" width="80" height="36" rx="10" ry="10"/>
    <text font-size="12.7998" style="fill: #000000;text-anchor:middle;font-family:sans-serif;font-style:normal;font-weight:normal" x="532.293" y="329.16">
      <tspan x="532.293" y="329.16">Liquid</tspan>
    </text>
  </g>
  <g>
    <rect style="fill: #ffffff" x="662.51" y="306.526" width="80" height="36" rx="10" ry="10"/>
    <rect style="fill: none; fill-opacity:0; stroke-width: 2; stroke: #000000" x="662.51" y="306.526" width="80" height="36" rx="10" ry="10"/>
    <text font-size="12.7998" style="fill: #000000;text-anchor:middle;font-family:sans-serif;font-style:normal;font-weight:normal" x="702.51" y="329.326">
      <tspan x="702.51" y="329.326">Gas</tspan>
    </text>
  </g>
  <g>
    <path style="fill: none; fill-opacity:0; stroke-width: 2; stroke: #000000" d="M 677.511,299.634 A 104.489,104.489 0 0 0 549.755,305.374"/>
    <polygon style="fill: #000000" points="683.476,304.133 672.624,301.444 677.772,299.264 679.116,293.838 "/>
    <polygon style="fill: none; fill-opacity:0; stroke-width: 2; stroke: #000000" points="683.476,304.133 672.624,301.444 677.772,299.264 679.116,293.838 "/>
  </g>
  <text font-size="12.7998" style="fill: #000000;text-anchor:middle;font-family:sans-serif;font-style:normal;font-weight:normal" x="616.68" y="260.688">
    <tspan x="616.68" y="260.688">vaporize</tspan>
    <tspan x="616.68" y="276.688">[temperature &gt; 100]</tspan>
  </text>
  <g>
    <path style="fill: none; fill-opacity:0; stroke-width: 2; stroke: #000000" d="M 556.787,349.407 A 103.484,103.484 0 0 0 685.583,343.473"/>
    <polygon style="fill: #000000" points="550.882,344.831 561.696,347.668 556.519,349.778 555.1,355.185 "/>
    <polygon style="fill: none; fill-opacity:0; stroke-width: 2; stroke: #000000" points="550.882,344.831 561.696,347.668 556.519,349.778 555.1,355.185 "/>
  </g>
  <text font-size="12.7998" style="fill: #000000;text-anchor:middle;font-family:sans-serif;font-style:normal;font-weight:normal" x="620.924" y="380.98">
    <tspan x="620.924" y="380.98">condense</tspan>
    <tspan x="620.924" y="396.98">[temperature &lt;= 100]</tspan>
  </text>
  <g>
    <path style="fill: none; fill-opacity:0; stroke-width: 2; stroke: #000000" d="M 509.689,299.028 A 94.8984,94.8984 0 0 0 387.377,303.738"/>
    <polygon style="fill: #000000" points="515.408,303.827 504.73,300.513 509.996,298.635 511.653,293.296 "/>
    <polygon style="fill: none; fill-opacity:0; stroke-width: 2; stroke: #000000" points="515.408,303.827 504.73,300.513 509.996,298.635 511.653,293.296 "/>
  </g>
  <text font-size="12.7998" style="fill: #000000;text-anchor:middle;font-family:sans-serif;font-style:normal;font-weight:normal" x="453.546" y="259.898">
    <tspan x="453.546" y="259.898">melt</tspan>
    <tspan x="453.546" y="275.898">[temperature &gt; 0]</tspan>
  </text>
  <g>
    <path style="fill: none; fill-opacity:0; stroke-width: 2; stroke: #000000" d="M 392.671,348.323 A 92.9471,92.9471 0 0 0 517.428,343.34"/>
    <polygon style="fill: #000000" points="387.125,343.328 397.675,347.027 392.345,348.713 390.495,353.988 "/>
    <polygon style="fill: none; fill-opacity:0; stroke-width: 2; stroke: #000000" points="387.125,343.328 397.675,347.027 392.345,348.713 390.495,353.988 "/>
  </g>
  <text font-size="12.7998" style="fill: #000000;text-anchor:middle;font-family:sans-serif;font-style:normal;font-weight:normal" x="451.048" y="382.277">
    <tspan x="451.048" y="382.277">freeze</tspan>
    <tspan x="451.048" y="398.277">[temperature &lt;=0]</tspan>
  </text>
  <text font-size="12.7998" style="fill: #000000;text-anchor:start;font-family:sans-serif;font-style:normal;font-weight:normal" x="452.196" y="255.351">
    <tspan x="452.196" y="255.351"></tspan>
  </text>
  <text font-size="12.7998" style="fill: #000000;text-anchor:start;font-family:sans-serif;font-style:normal;font-weight:normal" x="428.354" y="266.355">
    <tspan x="428.354" y="266.355"></tspan>
  </text>
  <text font-size="12.7998" style="fill: #000000;text-anchor:start;font-family:sans-serif;font-style:normal;font-weight:normal" x="426.979" y="271.398">
    <tspan x="426.979" y="271.398"></tspan>
  </text>
  <text font-size="12.7998" style="fill: #000000;text-anchor:start;font-family:sans-serif;font-style:normal;font-weight:normal" x="590.205" y="259.477">
    <tspan x="590.205" y="259.477"></tspan>
  </text>
  <text font-size="12.7998" style="fill: #000000;text-anchor:start;font-family:sans-serif;font-style:normal;font-weight:normal" x="454.03" y="379.146">
    <tspan x="454.03" y="379.146"></tspan>
  </text>
  <text font-size="12.7998" style="fill: #000000;text-anchor:start;font-family:sans-serif;font-style:normal;font-weight:normal" x="597.999" y="377.312">
    <tspan x="597.999" y="377.312"></tspan>
  </text>
  <text font-size="12.7998" style="fill: #000000;text-anchor:start;font-family:sans-serif;font-style:normal;font-weight:normal" x="614.047" y="392.901">
    <tspan x="614.047" y="392.901"></tspan>
  </text>
</svg>
